<?xml version="1.0" encoding="utf-8"?>
<!-- Generator: Adobe Illustrator 26.5.0, SVG Export Plug-In . SVG Version: 6.00 Build 0)  -->
<svg version="1.1" id="Layer_1" xmlns="http://www.w3.org/2000/svg" xmlns:xlink="http://www.w3.org/1999/xlink" x="0px" y="0px"
	 viewBox="0 0 1080 1080" style="enable-background:new 0 0 1080 1080;" xml:space="preserve">
<style type="text/css">
	.st0{fill:#06A3DA;}
	.st1{fill:none;stroke:#06A3DA;stroke-width:8;stroke-miterlimit:10;}
	.st2{fill:#FFFFFF;stroke:#06A3DA;stroke-width:8;stroke-miterlimit:10;}
	.st3{fill:#06A3DA;stroke:#06A3DA;stroke-width:8;stroke-miterlimit:10;}
</style>
<g>
	<g>
		<path class="st0" d="M84.05,693.94c0.05,0.05,0.12,0.13,0.21,0.24c2.57,3.18,5.48,6.12,8.72,8.83c3.24,2.7,6.95,4.16,11.15,4.37
			c0.09,0,0.21,0.03,0.36,0.08c0.14,0.05,0.26,0.08,0.36,0.08c0.09,0,0.21,0.03,0.36,0.08c0.14,0.05,0.26,0.08,0.36,0.08
			c0.38,0,0.79-0.03,1.21-0.08c0.43-0.05,0.83-0.13,1.21-0.24c1.52-0.32,2.98-0.95,4.36-1.91c1.38-0.95,2.45-2.12,3.21-3.5
			c0.09-0.21,0.19-0.42,0.29-0.64c0.09-0.21,0.19-0.42,0.29-0.64c0.19-0.74,0.33-1.43,0.43-2.07c0.09-0.64,0.14-1.22,0.14-1.75
			c0-2.86-1.12-5.27-3.36-7.23c-2.24-1.96-4.64-3.47-7.22-4.53c-1.05-0.42-2.05-0.77-3-1.03c-0.95-0.26-1.86-0.5-2.71-0.72
			c-0.1,0-0.19-0.03-0.29-0.08c-0.1-0.05-0.19-0.08-0.29-0.08c-4.67-1.27-9.05-3.31-13.15-6.12c-4.1-2.81-6.91-6.86-8.43-12.16
			c-0.29-1.06-0.55-2.17-0.79-3.34c-0.24-1.17-0.41-2.38-0.5-3.66c-0.1-0.42-0.14-0.82-0.14-1.19c0-0.37,0-0.77,0-1.19
			c0-0.85,0.02-1.69,0.07-2.54c0.05-0.85,0.17-1.69,0.36-2.54c0.29-2.12,0.76-4.24,1.43-6.36c0.67-2.12,1.52-4.03,2.57-5.72
			c3.05-5.62,6.98-9.64,11.79-12.08c4.81-2.44,9.83-3.66,15.07-3.66c1.24,0,2.5,0.08,3.79,0.24c1.29,0.16,2.59,0.35,3.93,0.56
			c3.43,0.64,6.83,1.7,10.22,3.18c3.38,1.49,6.5,3.23,9.36,5.25l-7.86,19.56c-2.57-2.12-5.29-3.98-8.14-5.57s-5.95-2.38-9.29-2.38
			c-0.19,0-0.38,0-0.57,0c-0.19,0-0.38,0-0.57,0c-2.19,0.32-4.24,1.41-6.14,3.26c-1.91,1.86-2.86,3.84-2.86,5.96
			c0,0.32,0.02,0.64,0.07,0.95c0.05,0.32,0.17,0.64,0.36,0.95c0.19,0.74,0.52,1.43,1,2.07c0.48,0.64,1,1.22,1.57,1.75
			c1.05,0.95,2.57,1.83,4.57,2.62c2,0.79,4.09,1.57,6.29,2.31c1.81,0.53,3.57,1.03,5.29,1.51c1.71,0.48,3.14,0.93,4.29,1.35
			c5.33,2.12,9.33,5.64,12,10.57c2.67,4.93,4.05,10.15,4.14,15.66c0,0.21,0,0.37,0,0.48c0,0.11,0,0.21,0,0.32
			c0,0.64-0.02,1.27-0.07,1.91c-0.05,0.64-0.07,1.22-0.07,1.75c-0.57,5.51-2.17,10.76-4.79,15.74c-2.62,4.98-6.12,8.8-10.5,11.45
			c-1.62,0.85-3.29,1.56-5,2.15c-1.71,0.58-3.43,1.09-5.14,1.51c-1.43,0.32-2.86,0.56-4.29,0.71s-2.81,0.24-4.14,0.24
			c-0.29,0-0.55,0-0.79,0c-0.24,0-0.5,0-0.79,0c-5.72-0.21-11.34-1.62-16.86-4.21c-5.53-2.6-10.43-6.07-14.72-10.42l11.43-20.35
			C83.93,693.81,84.01,693.89,84.05,693.94z"/>
		<path class="st0" d="M160.71,673.83h-9.29v-17.17h9.29v-20.99h21.72v20.99h9.57v17.17h-9.57v52.63h-21.72V673.83z"/>
		<path class="st0" d="M271.45,726.14h-20.43v-10.97c-2.95,4.45-6.19,7.82-9.72,10.1c-3.53,2.28-7.62,3.42-12.29,3.42
			c-0.76,0-1.6,0-2.5,0c-0.91,0-1.83-0.11-2.79-0.32c-7.14-1.17-12.5-4.85-16.07-11.05s-5.69-12.96-6.36-20.27
			c-0.1-0.95-0.17-1.88-0.21-2.78c-0.05-0.9-0.07-1.77-0.07-2.62c0-0.32,0-0.66,0-1.03c0-0.37,0.05-0.77,0.14-1.19
			c0-0.64,0.05-1.32,0.14-2.07c0.09-0.74,0.14-1.48,0.14-2.23c0.09-0.32,0.17-0.64,0.21-0.95c0.05-0.32,0.07-0.64,0.07-0.95
			c1.05-8.48,4.07-15.42,9.07-20.83s11.41-8.11,19.22-8.11c4.86,0,8.93,1.19,12.22,3.58s6.22,5.75,8.79,10.1v-11.29h20.43V726.14z
			 M226.8,702.21c2.33,3.45,5.83,5.17,10.5,5.17c4.67,0,8.19-1.72,10.57-5.17c2.38-3.44,3.57-7.24,3.57-11.37c0-0.21,0-0.42,0-0.64
			c0-0.21,0-0.42,0-0.64c-0.29-3.92-1.62-7.53-4-10.81c-2.38-3.28-5.76-4.93-10.15-4.93c-4.57,0-8.05,1.67-10.43,5.01
			c-2.38,3.34-3.67,6.97-3.86,10.89c0,0.21,0,0.4,0,0.56c0,0.16,0,0.29,0,0.4C223.2,694.93,224.46,698.77,226.8,702.21z"/>
		<path class="st0" d="M287.59,656.66h20.86v16.22c1.14-3.07,2.62-5.88,4.43-8.43c1.81-2.54,4.05-4.72,6.72-6.52
			c1.62-1.17,3.33-1.93,5.14-2.31c1.81-0.37,3.62-0.56,5.43-0.56c0.48,0,0.98,0.03,1.5,0.08c0.52,0.05,1.07,0.08,1.64,0.08
			c0.57,0,1.12,0.03,1.64,0.08c0.52,0.05,1.02,0.08,1.5,0.08l-2.29,22.42c-0.19-0.1-0.43-0.18-0.71-0.24
			c-0.29-0.05-0.52-0.08-0.71-0.08c-1.24-0.32-2.43-0.56-3.57-0.72s-2.19-0.24-3.14-0.24c-4.86,0-8.81,1.72-11.86,5.17
			c-3.05,3.45-4.57,8.67-4.57,15.66v29.1h-22V656.66z"/>
		<path class="st0" d="M355.18,673.83h-9.29v-17.17h9.29v-20.99h21.72v20.99h9.57v17.17h-9.57v52.63h-21.72V673.83z"/>
		<path class="st0" d="M425.62,625.18v42.29c0,0.74-0.02,1.57-0.07,2.46c-0.05,0.9-0.07,1.88-0.07,2.94c0,0.64-0.02,1.27-0.07,1.91
			c-0.05,0.64-0.07,1.33-0.07,2.07c0,0.32,0,0.66,0,1.03c0,0.37,0,0.77,0,1.19c0,0.64,0,1.25,0,1.83c0,0.58,0,1.14,0,1.67
			c0.09,2.86,0.31,5.62,0.64,8.27c0.33,2.65,0.88,4.98,1.64,7c1.05,2.65,2.86,4.75,5.43,6.28c2.57,1.54,5.33,2.31,8.29,2.31
			c0.09,0,0.19,0,0.29,0c0.09,0,0.19,0,0.29,0c2.76-0.1,5.38-0.9,7.86-2.38c2.48-1.48,4.24-3.55,5.29-6.2c0.76-2.01,1.26-4.34,1.5-7
			c0.24-2.65,0.4-5.41,0.5-8.27c0-0.53,0-1.09,0-1.67c0-0.58,0-1.19,0-1.83v-53.9h24.58v57.72c0,0.95,0,1.94,0,2.94
			c0,1.01-0.05,1.99-0.14,2.94c-0.19,5.09-0.81,10.07-1.86,14.95c-1.05,4.88-3,9.17-5.86,12.88c-3.05,4.03-6.76,6.86-11.15,8.51
			c-4.38,1.64-8.91,2.73-13.57,3.26c-1.34,0.1-2.64,0.18-3.93,0.24c-1.29,0.05-2.55,0.08-3.79,0.08c-1.34,0-2.67-0.03-4-0.08
			c-1.33-0.05-2.67-0.13-4-0.24c-4.67-0.53-9.17-1.64-13.5-3.34c-4.34-1.69-8.07-4.5-11.22-8.43c-2.86-3.71-4.84-8-5.93-12.88
			c-1.1-4.87-1.74-9.86-1.93-14.95c-0.1-0.95-0.14-1.93-0.14-2.94c0-1.01,0-1.99,0-2.94c0-0.74,0-1.48,0-2.23c0-0.74,0-1.48,0-2.23
			c0-0.53,0-1.06,0-1.59c0-0.53,0.05-1.06,0.14-1.59c0-1.17,0-2.36,0-3.58c0-1.22,0-2.36,0-3.42v-43.09H425.62z"/>
		<path class="st0" d="M498.63,656.66h20.29v11.61c2.76-4.34,6.07-7.76,9.93-10.25c3.86-2.49,7.98-3.74,12.36-3.74
			c0.95,0,1.95,0.08,3,0.24c1.05,0.16,2.09,0.34,3.14,0.56c0.66,0.21,1.33,0.42,2,0.64c0.67,0.21,1.29,0.42,1.86,0.64
			c6,2.65,10.45,7.23,13.36,13.75c2.9,6.52,4.36,13.38,4.36,20.59c0,0.32,0,0.61,0,0.88c0,0.27,0,0.56,0,0.87
			c-0.29,9.12-2.86,17.44-7.72,24.96c-4.86,7.53-11.67,11.29-20.43,11.29l-0.71,0.16c-5.05-0.11-9.15-1.3-12.29-3.58
			s-6-5.64-8.57-10.1c0.09,1.06,0.16,2.09,0.21,3.1c0.05,1.01,0.12,1.99,0.21,2.94c0,0.95,0,1.94,0,2.94c0,1.01,0,1.99,0,2.94v30.05
			h-21V656.66z M542.79,703.48c2.95-3.66,4.43-7.76,4.43-12.32c0-4.56-1.31-8.61-3.93-12.16c-2.62-3.55-6.17-5.33-10.65-5.33
			c-4.67,0-8.19,1.83-10.57,5.49c-2.38,3.66-3.57,7.66-3.57,12c0,0.11,0,0.24,0,0.4s0,0.35,0,0.56c0.19,4.13,1.47,7.98,3.86,11.53
			c2.38,3.55,5.81,5.33,10.29,5.33C536.45,708.97,539.83,707.14,542.79,703.48z"/>
		<path class="st0" d="M651.67,659.2c-3.14-3.6-6.43-6.52-9.86-8.75c-3.43-2.23-7.38-3.34-11.86-3.34h-2.14
			c-6.57,0.64-11.64,3.76-15.22,9.38c-3.57,5.62-5.5,11.71-5.79,18.29c0,0.21,0,0.45,0,0.71c0,0.27,0,0.5,0,0.72
			c0,5.94,1.38,11.53,4.14,16.77c2.76,5.25,6.86,8.77,12.29,10.57c1.33,0.43,2.59,0.74,3.79,0.95c1.19,0.21,2.31,0.32,3.36,0.32
			c4.19,0,8-1.19,11.43-3.58c3.43-2.39,6.72-5.33,9.86-8.83v30.21c-1.33,0.64-2.64,1.22-3.93,1.75c-1.29,0.53-2.6,1.01-3.93,1.43
			c-2.57,0.74-5.17,1.35-7.79,1.83c-2.62,0.48-5.26,0.72-7.93,0.72c-0.57,0-1.12,0-1.64,0c-0.52,0-1.07,0-1.64,0
			c-0.57,0-1.12-0.03-1.64-0.08c-0.52-0.05-1.07-0.13-1.64-0.24c-12-1.27-21.6-7.02-28.79-17.25
			c-7.19-10.23-10.79-21.92-10.79-35.06c0-13.04,3.59-24.67,10.79-34.9c7.19-10.23,16.79-16.14,28.79-17.73
			c0.48,0,0.95-0.03,1.43-0.08c0.48-0.05,0.95-0.08,1.43-0.08c0.38,0,0.81-0.03,1.29-0.08c0.48-0.05,0.95-0.08,1.43-0.08
			c4.19,0,8.36,0.56,12.5,1.67c4.14,1.11,8.17,2.62,12.07,4.53V659.2z"/>
		<path class="st0" d="M687.25,696.25c0.29,4.77,1.48,8.72,3.57,11.85c2.09,3.13,5.48,4.8,10.14,5.01c0.09,0,0.17,0,0.21,0
			c0.05,0,0.12,0,0.21,0c0,0.11,0.02,0.16,0.07,0.16c0.05,0,0.12,0,0.21,0c2.86,0,5.45-0.69,7.79-2.07c2.33-1.38,4.26-3.5,5.79-6.36
			l16.72,7.47c-2.48,5.72-6.36,9.94-11.65,12.64s-10.88,4.11-16.79,4.21c-0.1,0-0.21,0-0.36,0s-0.26,0-0.36,0c-0.19,0-0.36,0-0.5,0
			c-0.14,0-0.31,0-0.5,0c-5.34-0.11-10.53-1.27-15.57-3.5c-5.05-2.23-9.1-5.41-12.15-9.54c-2.29-2.97-4.12-6.33-5.5-10.1
			c-1.38-3.76-2.17-7.6-2.36-11.53c0-0.32,0-0.61,0-0.88c0-0.26,0-0.56,0-0.87s0.02-0.69,0.07-1.11c0.05-0.42,0.12-0.85,0.21-1.27
			c0-0.32,0.02-0.69,0.07-1.11c0.05-0.42,0.07-0.79,0.07-1.11c1.05-10.49,4.95-18.76,11.72-24.8c6.76-6.04,14.43-9.06,23-9.06
			c1.81,0,3.59,0.13,5.36,0.4c1.76,0.27,3.55,0.66,5.36,1.19c8.95,2.86,14.95,8.03,18,15.5c3.05,7.47,4.67,15.77,4.86,24.88H687.25z
			 M692.03,672.88c-1.95,2.44-3.31,5.62-4.07,9.54h25.29c-0.48-3.71-1.79-6.81-3.93-9.3c-2.14-2.49-5.03-3.79-8.64-3.9
			C696.87,669.22,693.98,670.44,692.03,672.88z"/>
		<path class="st0" d="M748.97,656.66h20.15v14.15c3.05-5.3,6.41-9.38,10.07-12.24c3.67-2.86,8.26-4.29,13.79-4.29h2.71
			c0.29,0,0.55,0.03,0.79,0.08c0.24,0.05,0.5,0.08,0.79,0.08c3.14,0.42,6.14,1.51,9,3.26s5.14,4.16,6.86,7.23
			c1.33,2.65,2.17,5.46,2.5,8.43c0.33,2.97,0.55,5.99,0.64,9.06c0,0.74,0,1.46,0,2.15c0,0.69,0,1.35,0,1.99v39.91h-22.15v-37.37
			c0-0.85-0.02-1.69-0.07-2.54c-0.05-0.85-0.07-1.75-0.07-2.7c-0.29-1.91-0.76-3.76-1.43-5.56c-0.67-1.8-1.76-3.18-3.29-4.13
			c-0.38-0.21-0.86-0.4-1.43-0.56c-0.57-0.16-1.14-0.24-1.71-0.24c-0.38-0.1-0.76-0.16-1.14-0.16c-0.38,0-0.76,0-1.14,0
			c-0.29,0-0.57,0-0.86,0c-0.29,0-0.62,0.05-1,0.16c-0.38,0-0.79,0.03-1.21,0.08c-0.43,0.05-0.79,0.13-1.07,0.24
			c-3.43,1.27-5.72,3.5-6.86,6.68c-1.14,3.18-1.81,6.52-2,10.02c-0.1,1.17-0.14,2.31-0.14,3.42c0,1.11,0,2.2,0,3.26v29.42h-21.72
			V656.66z"/>
		<path class="st0" d="M838.27,673.83h-9.29v-17.17h9.29v-20.99h21.72v20.99h9.57v17.17h-9.57v52.63h-21.72V673.83z"/>
		<path class="st0" d="M882.28,656.66h20.86v16.22c1.14-3.07,2.62-5.88,4.43-8.43c1.81-2.54,4.05-4.72,6.72-6.52
			c1.62-1.17,3.33-1.93,5.14-2.31c1.81-0.37,3.62-0.56,5.43-0.56c0.48,0,0.98,0.03,1.5,0.08c0.52,0.05,1.07,0.08,1.64,0.08
			s1.12,0.03,1.64,0.08c0.52,0.05,1.02,0.08,1.5,0.08l-2.29,22.42c-0.19-0.1-0.43-0.18-0.71-0.24c-0.29-0.05-0.52-0.08-0.71-0.08
			c-1.24-0.32-2.43-0.56-3.57-0.72s-2.19-0.24-3.14-0.24c-4.86,0-8.81,1.72-11.86,5.17c-3.05,3.45-4.57,8.67-4.57,15.66v29.1h-22
			V656.66z"/>
		<path class="st0" d="M961.87,696.25c0.29,4.77,1.48,8.72,3.57,11.85c2.09,3.13,5.48,4.8,10.14,5.01c0.09,0,0.17,0,0.21,0
			c0.05,0,0.12,0,0.21,0c0,0.11,0.02,0.16,0.07,0.16c0.05,0,0.12,0,0.21,0c2.86,0,5.45-0.69,7.79-2.07c2.33-1.38,4.26-3.5,5.79-6.36
			l16.72,7.47c-2.48,5.72-6.36,9.94-11.65,12.64s-10.88,4.11-16.79,4.21c-0.1,0-0.21,0-0.36,0s-0.26,0-0.36,0c-0.19,0-0.36,0-0.5,0
			c-0.14,0-0.31,0-0.5,0c-5.34-0.11-10.53-1.27-15.57-3.5c-5.05-2.23-9.1-5.41-12.15-9.54c-2.29-2.97-4.12-6.33-5.5-10.1
			c-1.38-3.76-2.17-7.6-2.36-11.53c0-0.32,0-0.61,0-0.88c0-0.26,0-0.56,0-0.87s0.02-0.69,0.07-1.11c0.05-0.42,0.12-0.85,0.21-1.27
			c0-0.32,0.02-0.69,0.07-1.11c0.05-0.42,0.07-0.79,0.07-1.11c1.05-10.49,4.95-18.76,11.72-24.8c6.76-6.04,14.43-9.06,23-9.06
			c1.81,0,3.59,0.13,5.36,0.4c1.76,0.27,3.55,0.66,5.36,1.19c8.95,2.86,14.95,8.03,18,15.5c3.05,7.47,4.67,15.77,4.86,24.88H961.87z
			 M966.66,672.88c-1.95,2.44-3.31,5.62-4.07,9.54h25.29c-0.48-3.71-1.79-6.81-3.93-9.3c-2.14-2.49-5.03-3.79-8.64-3.9
			C971.49,669.22,968.61,670.44,966.66,672.88z"/>
	</g>
	<g>
		<g>
			<path class="st0" d="M128.52,812.03v-29.01h14.52v4.25h-9.36v7.31h8.62v4.25h-8.62v8.94h9.36v4.25H128.52z"/>
			<path class="st0" d="M166.77,812.03h-5.16v-29.01h8.22l2.76,13.46c0.44,2.21,0.74,4.45,0.96,6.69h0.07
				c0.26-2.86,0.44-4.8,0.81-6.69l2.76-13.46h8.18v29.01h-5.16v-9.13c0-5.76,0.11-11.53,0.44-17.29h-0.07l-5.53,26.42h-3.13
				l-5.42-26.42h-0.18c0.33,5.76,0.44,11.53,0.44,17.29V812.03z"/>
			<path class="st0" d="M204.86,812.03v-29.01h10.54c4.94,0,6.45,4.18,6.45,8.24c0,2.48-0.63,5.26-2.58,6.88
				c-1.62,1.35-3.8,1.78-5.79,1.74h-3.46v12.15H204.86z M210.02,795.63h2.76c2.25,0,3.76-1.01,3.76-4.53c0-3.33-1.25-3.83-4.16-3.83
				h-2.36V795.63z"/>
			<path class="st0" d="M239.65,795.21c0.22-7.39,0.77-12.88,9.03-12.88s8.81,5.49,9.03,12.88v4.14c0,7.74-0.55,13.38-9.03,13.38
				c-8.48,0-9.03-5.65-9.03-13.38V795.21z M244.95,802.05c0,2.4,0.18,6.3,3.72,6.3c3.69,0,3.72-3.98,3.72-6.77v-7.43
				c0-2.32,0.11-7.46-3.72-7.46c-4.05,0-3.72,5.07-3.72,7.31V802.05z"/>
			<path class="st0" d="M294.73,798.03c0.52,2.9,0.77,6.62,1.14,10.33h0.07c0.07-0.7,0.11-1.39,0.18-2.09
				c0.18-2.48,0.41-4.95,0.77-7.43l2.06-15.82h5.34l-5.12,29.01H293l-2.06-11.45c-0.55-3.06-0.74-6.15-1.11-9.25h-0.07
				c-0.37,3.09-0.55,6.19-1.11,9.25l-1.84,11.45h-6.19l-5.27-29.01h5.34l2.32,15.82c0.37,2.48,0.59,4.95,0.77,7.43
				c0.07,0.7,0.11,1.39,0.15,2.09h0.07c0.41-3.71,0.66-7.43,1.18-10.33l2.51-15.01h4.27L294.73,798.03z"/>
			<path class="st0" d="M322.07,812.03v-29.01h14.52v4.25h-9.36v7.31h8.62v4.25h-8.62v8.94h9.36v4.25H322.07z"/>
			<path class="st0" d="M360.28,799.54v12.49h-5.16v-29.01h9.77c4.46,0,7.85,1.62,7.85,6.96c0,3.17-0.77,6.5-4.24,7v0.08
				c3.06,0.43,3.98,2.48,3.98,5.26c0,1.2-0.15,8.32,1.11,9.17v0.54h-5.67c-0.63-1.86-0.52-5.42-0.55-7.35
				c-0.04-1.78,0-4.22-1.77-4.76c-1.4-0.42-2.91-0.39-4.39-0.39H360.28z M360.28,795.28h4.05c1.7-0.12,3.02-1.28,3.02-4.18
				c0-3.25-1.29-3.79-3.24-3.83h-3.83V795.28z"/>
			<path class="st0" d="M392.29,812.03v-29.01h5.16v29.01H392.29z"/>
			<path class="st0" d="M429.4,783.02h5.16v29.01h-5.38l-4.02-10.33c-1.36-3.44-2.47-6.96-3.69-11.53h-0.07
				c0.18,2.4,0.41,5.34,0.55,8.28c0.15,2.9,0.26,5.8,0.26,8.12v5.45h-5.16v-29.01h5.34l4.02,10.56c1.33,3.37,2.43,6.81,3.69,11.53
				h0.07c-0.18-2.63-0.37-5.45-0.52-8.24s-0.26-5.57-0.26-8.16V783.02z"/>
			<path class="st0" d="M453.64,795.21c0.22-7.39,0.77-12.88,9.03-12.88c4.42,0.04,7.48,1.24,8.66,6.27
				c0.26,1.16,0.22,2.36,0.26,3.52h-5.16c-0.07-2.94-0.26-5.26-3.76-5.42c-4.05,0-3.72,5.07-3.72,7.31v8.05c0,2.4,0.18,6.3,3.72,6.3
				c2.95,0,3.91-3.29,3.8-7.66h-3.57v-4.25h8.59v15.59h-3.87v-3.33h-0.07c-1.03,3.02-2.98,3.87-4.86,4.02
				c-8.48,0-9.03-5.65-9.03-13.38V795.21z"/>
			<path class="st0" d="M514.8,812.03v-29.01h14.52v4.25h-9.36v7.31h8.62v4.25h-8.62v8.94h9.36v4.25H514.8z"/>
			<path class="st0" d="M560.27,783.02h5.16v29.01h-5.38l-4.02-10.33c-1.36-3.44-2.47-6.96-3.69-11.53h-0.07
				c0.18,2.4,0.41,5.34,0.55,8.28c0.15,2.9,0.26,5.8,0.26,8.12v5.45h-5.16v-29.01h5.34l4.02,10.56c1.33,3.37,2.43,6.81,3.68,11.53
				h0.07c-0.18-2.63-0.37-5.45-0.52-8.24s-0.26-5.57-0.26-8.16V783.02z"/>
			<path class="st0" d="M583.11,783.02h17.21v4.25h-6.01v24.76h-5.16v-24.76h-6.04V783.02z"/>
			<path class="st0" d="M623.05,799.54v12.49h-5.16v-29.01h9.77c4.46,0,7.85,1.62,7.85,6.96c0,3.17-0.77,6.5-4.24,7v0.08
				c3.06,0.43,3.98,2.48,3.98,5.26c0,1.2-0.15,8.32,1.11,9.17v0.54h-5.67c-0.63-1.86-0.52-5.42-0.55-7.35
				c-0.04-1.78,0-4.22-1.77-4.76c-1.4-0.42-2.91-0.39-4.38-0.39H623.05z M623.05,795.28h4.05c1.7-0.12,3.02-1.28,3.02-4.18
				c0-3.25-1.29-3.79-3.24-3.83h-3.83V795.28z"/>
			<path class="st0" d="M654.89,812.03v-29.01h14.52v4.25h-9.36v7.31h8.62v4.25h-8.62v8.94h9.36v4.25H654.89z"/>
			<path class="st0" d="M688.01,812.03v-29.01h10.54c4.94,0,6.45,4.18,6.45,8.24c0,2.48-0.63,5.26-2.58,6.88
				c-1.62,1.35-3.8,1.78-5.79,1.74h-3.46v12.15H688.01z M693.17,795.63h2.76c2.25,0,3.76-1.01,3.76-4.53c0-3.33-1.25-3.83-4.16-3.83
				h-2.36V795.63z"/>
			<path class="st0" d="M728.14,799.54v12.49h-5.16v-29.01h9.77c4.46,0,7.85,1.62,7.85,6.96c0,3.17-0.77,6.5-4.24,7v0.08
				c3.06,0.43,3.98,2.48,3.98,5.26c0,1.2-0.15,8.32,1.11,9.17v0.54h-5.67c-0.63-1.86-0.52-5.42-0.55-7.35
				c-0.04-1.78,0-4.22-1.77-4.76c-1.4-0.42-2.91-0.39-4.38-0.39H728.14z M728.14,795.28h4.05c1.7-0.12,3.02-1.28,3.02-4.18
				c0-3.25-1.29-3.79-3.24-3.83h-3.83V795.28z"/>
			<path class="st0" d="M759.97,812.03v-29.01h14.52v4.25h-9.36v7.31h8.62v4.25h-8.62v8.94h9.36v4.25H759.97z"/>
			<path class="st0" d="M805.44,783.02h5.16v29.01h-5.38l-4.02-10.33c-1.36-3.44-2.47-6.96-3.68-11.53h-0.07
				c0.18,2.4,0.41,5.34,0.55,8.28c0.15,2.9,0.26,5.8,0.26,8.12v5.45h-5.16v-29.01h5.34l4.02,10.56c1.33,3.37,2.43,6.81,3.69,11.53
				h0.07c-0.18-2.63-0.37-5.45-0.52-8.24s-0.26-5.57-0.26-8.16V783.02z"/>
			<path class="st0" d="M830.01,812.03v-29.01h14.52v4.25h-9.36v7.31h8.62v4.25h-8.62v8.94h9.36v4.25H830.01z"/>
			<path class="st0" d="M875.52,783.02h5.16v20.23c0,6.42-1.99,9.48-8.73,9.48c-6.82,0-8.81-3.06-8.81-9.48v-20.23h5.16v19.77
				c0,2.79,0.18,5.57,3.68,5.57c3.35,0,3.54-2.79,3.54-5.57V783.02z"/>
			<path class="st0" d="M905.29,799.54v12.49h-5.16v-29.01h9.77c4.46,0,7.85,1.62,7.85,6.96c0,3.17-0.77,6.5-4.24,7v0.08
				c3.06,0.43,3.98,2.48,3.98,5.26c0,1.2-0.15,8.32,1.11,9.17v0.54h-5.67c-0.63-1.86-0.52-5.42-0.55-7.35
				c-0.04-1.78,0-4.22-1.77-4.76c-1.4-0.42-2.91-0.39-4.38-0.39H905.29z M905.29,795.28h4.05c1.7-0.12,3.02-1.28,3.02-4.18
				c0-3.25-1.29-3.79-3.24-3.83h-3.83V795.28z"/>
			<path class="st0" d="M947.81,791.84c0.04-2.59-0.18-5.14-3.02-5.14c-1.73,0-2.84,0.73-2.84,2.71c0,2.2,1.33,3.06,2.95,4.14
				c1.7,1.12,4.83,3.29,6.26,4.76c1.77,1.82,2.32,3.56,2.32,6.07c0,5.49-3.46,8.36-8.51,8.36c-6.19,0-8.4-3.64-8.4-8.82v-2.13h5.16
				v1.7c-0.11,2.82,0.7,4.87,3.24,4.87c2.17,0,3.21-1.2,3.21-3.4c0-1.7-0.74-2.86-2.06-3.83c-2.69-2.21-6.04-3.79-8.14-6.69
				c-0.85-1.32-1.33-2.9-1.33-4.45c0-4.95,2.65-7.66,8.11-7.66c8.22,0,8,6.65,8.03,9.52H947.81z"/>
		</g>
	</g>
</g>
<polyline class="st1" points="322.39,503.92 424.66,425.67 483.54,426.45 552.5,480.68 610.61,481.45 723.72,329.6 "/>
<circle class="st2" cx="323.45" cy="507.71" r="38.67"/>
<circle class="st2" cx="455.94" cy="403.12" r="38.67"/>
<circle class="st2" cx="583.26" cy="502.29" r="38.67"/>
<circle class="st2" cx="728.66" cy="324.86" r="66.57"/>
<line class="st1" x1="688.21" y1="377.42" x2="704.89" y2="355.43"/>
<circle class="st3" cx="728.66" cy="324.86" r="38.67"/>
</svg>
