<?xml version="1.0" encoding="utf-8"?>
<!-- Generator: Adobe Illustrator 26.5.0, SVG Export Plug-In . SVG Version: 6.00 Build 0)  -->
<svg version="1.1" id="Layer_1" xmlns="http://www.w3.org/2000/svg" xmlns:xlink="http://www.w3.org/1999/xlink" x="0px" y="0px"
	 viewBox="0 0 200 90" style="enable-background:new 0 0 200 90;" xml:space="preserve">
<style type="text/css">
	.st0{fill:none;stroke:#000000;stroke-miterlimit:10;}
	.st1{fill:#FFFFFF;stroke:#000000;stroke-miterlimit:10;}
</style>
<g>
	<g>
		<path d="M37.31,67.2c0.01,0.01,0.02,0.02,0.03,0.03c0.36,0.45,0.77,0.86,1.23,1.24c0.46,0.38,0.98,0.59,1.57,0.62
			c0.01,0,0.03,0,0.05,0.01c0.02,0.01,0.04,0.01,0.05,0.01s0.03,0,0.05,0.01c0.02,0.01,0.04,0.01,0.05,0.01c0.05,0,0.11,0,0.17-0.01
			c0.06-0.01,0.12-0.02,0.17-0.03c0.21-0.04,0.42-0.13,0.61-0.27c0.19-0.13,0.35-0.3,0.45-0.49c0.01-0.03,0.03-0.06,0.04-0.09
			c0.01-0.03,0.03-0.06,0.04-0.09c0.03-0.1,0.05-0.2,0.06-0.29c0.01-0.09,0.02-0.17,0.02-0.25c0-0.4-0.16-0.74-0.47-1.02
			c-0.32-0.28-0.65-0.49-1.02-0.64c-0.15-0.06-0.29-0.11-0.42-0.15c-0.13-0.04-0.26-0.07-0.38-0.1c-0.01,0-0.03,0-0.04-0.01
			c-0.01-0.01-0.03-0.01-0.04-0.01c-0.66-0.18-1.28-0.47-1.85-0.86c-0.58-0.4-0.97-0.97-1.19-1.71c-0.04-0.15-0.08-0.31-0.11-0.47
			c-0.03-0.16-0.06-0.34-0.07-0.52c-0.01-0.06-0.02-0.12-0.02-0.17c0-0.05,0-0.11,0-0.17c0-0.12,0-0.24,0.01-0.36
			c0.01-0.12,0.02-0.24,0.05-0.36c0.04-0.3,0.11-0.6,0.2-0.9c0.09-0.3,0.21-0.57,0.36-0.81c0.43-0.79,0.98-1.36,1.66-1.7
			c0.68-0.34,1.39-0.51,2.12-0.51c0.17,0,0.35,0.01,0.53,0.03s0.37,0.05,0.55,0.08c0.48,0.09,0.96,0.24,1.44,0.45
			c0.48,0.21,0.92,0.46,1.32,0.74l-1.11,2.75c-0.36-0.3-0.74-0.56-1.15-0.78c-0.4-0.22-0.84-0.34-1.31-0.34c-0.03,0-0.05,0-0.08,0
			c-0.03,0-0.05,0-0.08,0c-0.31,0.04-0.6,0.2-0.87,0.46c-0.27,0.26-0.4,0.54-0.4,0.84c0,0.04,0,0.09,0.01,0.13s0.02,0.09,0.05,0.13
			c0.03,0.1,0.07,0.2,0.14,0.29c0.07,0.09,0.14,0.17,0.22,0.25c0.15,0.13,0.36,0.26,0.64,0.37c0.28,0.11,0.58,0.22,0.89,0.33
			c0.25,0.08,0.5,0.15,0.74,0.21c0.24,0.07,0.44,0.13,0.6,0.19c0.75,0.3,1.31,0.79,1.69,1.49c0.38,0.69,0.57,1.43,0.58,2.21
			c0,0.03,0,0.05,0,0.07s0,0.03,0,0.04c0,0.09,0,0.18-0.01,0.27s-0.01,0.17-0.01,0.25c-0.08,0.78-0.31,1.52-0.67,2.22
			c-0.37,0.7-0.86,1.24-1.48,1.61c-0.23,0.12-0.46,0.22-0.7,0.3c-0.24,0.08-0.48,0.15-0.72,0.21c-0.2,0.04-0.4,0.08-0.6,0.1
			s-0.4,0.03-0.58,0.03c-0.04,0-0.08,0-0.11,0c-0.03,0-0.07,0-0.11,0c-0.81-0.03-1.6-0.23-2.38-0.59c-0.78-0.37-1.47-0.85-2.07-1.47
			l1.61-2.87C37.3,67.18,37.31,67.19,37.31,67.2z"/>
		<path d="M48.11,64.36H46.8v-2.42h1.31v-2.96h3.06v2.96h1.35v2.42h-1.35v7.41h-3.06V64.36z"/>
		<path d="M63.71,71.73h-2.88v-1.54c-0.42,0.63-0.87,1.1-1.37,1.42c-0.5,0.32-1.07,0.48-1.73,0.48c-0.11,0-0.23,0-0.35,0
			s-0.26-0.01-0.39-0.04c-1.01-0.16-1.76-0.68-2.26-1.56c-0.5-0.87-0.8-1.83-0.9-2.86c-0.01-0.13-0.02-0.26-0.03-0.39
			s-0.01-0.25-0.01-0.37c0-0.04,0-0.09,0-0.15c0-0.05,0.01-0.11,0.02-0.17c0-0.09,0.01-0.19,0.02-0.29c0.01-0.1,0.02-0.21,0.02-0.31
			c0.01-0.04,0.02-0.09,0.03-0.13c0.01-0.04,0.01-0.09,0.01-0.13c0.15-1.19,0.57-2.17,1.28-2.93c0.7-0.76,1.61-1.14,2.71-1.14
			c0.68,0,1.26,0.17,1.72,0.5s0.88,0.81,1.24,1.42v-1.59h2.88V71.73z M57.42,68.36c0.33,0.49,0.82,0.73,1.48,0.73
			c0.66,0,1.15-0.24,1.49-0.73c0.34-0.48,0.5-1.02,0.5-1.6c0-0.03,0-0.06,0-0.09s0-0.06,0-0.09c-0.04-0.55-0.23-1.06-0.56-1.52
			s-0.81-0.69-1.43-0.69c-0.64,0-1.13,0.23-1.47,0.71s-0.52,0.98-0.54,1.53c0,0.03,0,0.06,0,0.08s0,0.04,0,0.06
			C56.91,67.33,57.09,67.88,57.42,68.36z"/>
		<path d="M65.98,61.94h2.94v2.28c0.16-0.43,0.37-0.83,0.62-1.19c0.25-0.36,0.57-0.66,0.95-0.92c0.23-0.16,0.47-0.27,0.72-0.32
			c0.25-0.05,0.51-0.08,0.76-0.08c0.07,0,0.14,0,0.21,0.01s0.15,0.01,0.23,0.01s0.16,0,0.23,0.01s0.14,0.01,0.21,0.01l-0.32,3.16
			c-0.03-0.01-0.06-0.03-0.1-0.03c-0.04-0.01-0.07-0.01-0.1-0.01c-0.17-0.04-0.34-0.08-0.5-0.1c-0.16-0.02-0.31-0.03-0.44-0.03
			c-0.68,0-1.24,0.24-1.67,0.73s-0.64,1.22-0.64,2.21v4.1h-3.1V61.94z"/>
		<path d="M75.51,64.36H74.2v-2.42h1.31v-2.96h3.06v2.96h1.35v2.42h-1.35v7.41h-3.06V64.36z"/>
		<path d="M85.43,57.51v5.96c0,0.1,0,0.22-0.01,0.35c-0.01,0.13-0.01,0.26-0.01,0.41c0,0.09,0,0.18-0.01,0.27
			c-0.01,0.09-0.01,0.19-0.01,0.29c0,0.04,0,0.09,0,0.15c0,0.05,0,0.11,0,0.17c0,0.09,0,0.18,0,0.26s0,0.16,0,0.24
			c0.01,0.4,0.04,0.79,0.09,1.17s0.12,0.7,0.23,0.99c0.15,0.37,0.4,0.67,0.77,0.88s0.75,0.32,1.17,0.32c0.01,0,0.03,0,0.04,0
			c0.01,0,0.03,0,0.04,0c0.39-0.01,0.76-0.13,1.11-0.34c0.35-0.21,0.6-0.5,0.75-0.87c0.11-0.28,0.18-0.61,0.21-0.99
			c0.03-0.37,0.06-0.76,0.07-1.17c0-0.07,0-0.15,0-0.24s0-0.17,0-0.26v-7.59h3.46v8.13c0,0.13,0,0.27,0,0.41
			c0,0.14-0.01,0.28-0.02,0.41c-0.03,0.72-0.11,1.42-0.26,2.11c-0.15,0.69-0.42,1.29-0.83,1.81c-0.43,0.57-0.95,0.97-1.57,1.2
			s-1.25,0.38-1.91,0.46c-0.19,0.01-0.37,0.03-0.55,0.03c-0.18,0.01-0.36,0.01-0.53,0.01c-0.19,0-0.38,0-0.56-0.01
			c-0.19-0.01-0.38-0.02-0.56-0.03c-0.66-0.07-1.29-0.23-1.9-0.47c-0.61-0.24-1.14-0.63-1.58-1.19c-0.4-0.52-0.68-1.13-0.84-1.81
			c-0.15-0.69-0.25-1.39-0.27-2.11c-0.01-0.13-0.02-0.27-0.02-0.41c0-0.14,0-0.28,0-0.41c0-0.1,0-0.21,0-0.31s0-0.21,0-0.31
			c0-0.08,0-0.15,0-0.22c0-0.07,0.01-0.15,0.02-0.22c0-0.16,0-0.33,0-0.5s0-0.33,0-0.48v-6.07H85.43z"/>
		<path d="M95.71,61.94h2.86v1.63c0.39-0.61,0.86-1.09,1.4-1.44s1.12-0.53,1.74-0.53c0.13,0,0.28,0.01,0.42,0.03
			c0.15,0.02,0.29,0.05,0.44,0.08c0.09,0.03,0.19,0.06,0.28,0.09c0.09,0.03,0.18,0.06,0.26,0.09c0.85,0.37,1.47,1.02,1.88,1.94
			c0.41,0.92,0.61,1.88,0.61,2.9c0,0.04,0,0.09,0,0.12s0,0.08,0,0.12c-0.04,1.28-0.4,2.46-1.09,3.52c-0.69,1.06-1.64,1.59-2.88,1.59
			l-0.1,0.02c-0.71-0.01-1.29-0.18-1.73-0.5s-0.85-0.79-1.21-1.42c0.01,0.15,0.02,0.29,0.03,0.44s0.02,0.28,0.03,0.41
			c0,0.13,0,0.27,0,0.41c0,0.14,0,0.28,0,0.42v4.23h-2.96V61.94z M101.93,68.54c0.42-0.52,0.62-1.09,0.62-1.74
			c0-0.64-0.19-1.21-0.55-1.71c-0.37-0.5-0.87-0.75-1.5-0.75c-0.66,0-1.15,0.26-1.49,0.77c-0.34,0.51-0.5,1.08-0.5,1.69
			c0,0.01,0,0.03,0,0.06s0,0.05,0,0.08c0.03,0.58,0.21,1.12,0.54,1.62s0.82,0.75,1.45,0.75C101.04,69.31,101.52,69.05,101.93,68.54z
			"/>
		<path d="M117.27,62.3c-0.44-0.51-0.91-0.92-1.39-1.23c-0.48-0.31-1.04-0.47-1.67-0.47h-0.3c-0.93,0.09-1.64,0.53-2.14,1.32
			c-0.5,0.79-0.77,1.65-0.81,2.58c0,0.03,0,0.06,0,0.1c0,0.04,0,0.07,0,0.1c0,0.84,0.19,1.62,0.58,2.36
			c0.39,0.74,0.97,1.24,1.73,1.49c0.19,0.06,0.37,0.11,0.53,0.13c0.17,0.03,0.33,0.04,0.47,0.04c0.59,0,1.13-0.17,1.61-0.5
			c0.48-0.34,0.95-0.75,1.39-1.24v4.26c-0.19,0.09-0.37,0.17-0.55,0.25c-0.18,0.08-0.37,0.14-0.55,0.2c-0.36,0.1-0.73,0.19-1.1,0.26
			c-0.37,0.07-0.74,0.1-1.12,0.1c-0.08,0-0.16,0-0.23,0c-0.07,0-0.15,0-0.23,0c-0.08,0-0.16,0-0.23-0.01
			c-0.07-0.01-0.15-0.02-0.23-0.03c-1.69-0.18-3.04-0.99-4.06-2.43c-1.01-1.44-1.52-3.09-1.52-4.94c0-1.84,0.51-3.48,1.52-4.92
			c1.01-1.44,2.36-2.27,4.06-2.5c0.07,0,0.13,0,0.2-0.01c0.07-0.01,0.13-0.01,0.2-0.01c0.05,0,0.11,0,0.18-0.01
			c0.07-0.01,0.13-0.01,0.2-0.01c0.59,0,1.18,0.08,1.76,0.23c0.58,0.16,1.15,0.37,1.7,0.64V62.3z"/>
		<path d="M122.28,67.52c0.04,0.67,0.21,1.23,0.5,1.67c0.29,0.44,0.77,0.68,1.43,0.71c0.01,0,0.02,0,0.03,0s0.02,0,0.03,0
			c0,0.02,0,0.02,0.01,0.02s0.02,0,0.03,0c0.4,0,0.77-0.1,1.1-0.29c0.33-0.19,0.6-0.49,0.82-0.9l2.36,1.05
			c-0.35,0.81-0.9,1.4-1.64,1.78c-0.75,0.38-1.53,0.58-2.37,0.59c-0.01,0-0.03,0-0.05,0c-0.02,0-0.04,0-0.05,0
			c-0.03,0-0.05,0-0.07,0s-0.04,0-0.07,0c-0.75-0.02-1.48-0.18-2.19-0.49s-1.28-0.76-1.71-1.34c-0.32-0.42-0.58-0.89-0.77-1.42
			s-0.31-1.07-0.33-1.62c0-0.04,0-0.09,0-0.12s0-0.08,0-0.12s0-0.1,0.01-0.16c0.01-0.06,0.02-0.12,0.03-0.18c0-0.04,0-0.1,0.01-0.16
			c0.01-0.06,0.01-0.11,0.01-0.16c0.15-1.48,0.7-2.64,1.65-3.49c0.95-0.85,2.03-1.28,3.24-1.28c0.25,0,0.51,0.02,0.75,0.06
			c0.25,0.04,0.5,0.09,0.75,0.17c1.26,0.4,2.11,1.13,2.54,2.18c0.43,1.05,0.66,2.22,0.68,3.5H122.28z M122.96,64.23
			c-0.28,0.34-0.47,0.79-0.57,1.34h3.56c-0.07-0.52-0.25-0.96-0.55-1.31c-0.3-0.35-0.71-0.53-1.22-0.55
			C123.64,63.71,123.23,63.88,122.96,64.23z"/>
		<path d="M130.98,61.94h2.84v1.99c0.43-0.75,0.9-1.32,1.42-1.72s1.16-0.6,1.94-0.6h0.38c0.04,0,0.08,0,0.11,0.01
			c0.03,0.01,0.07,0.01,0.11,0.01c0.44,0.06,0.87,0.21,1.27,0.46c0.4,0.25,0.72,0.59,0.97,1.02c0.19,0.37,0.3,0.77,0.35,1.19
			c0.05,0.42,0.08,0.84,0.09,1.28c0,0.1,0,0.21,0,0.3c0,0.1,0,0.19,0,0.28v5.62h-3.12v-5.26c0-0.12,0-0.24-0.01-0.36
			c-0.01-0.12-0.01-0.25-0.01-0.38c-0.04-0.27-0.11-0.53-0.2-0.78s-0.25-0.45-0.46-0.58c-0.05-0.03-0.12-0.06-0.2-0.08
			c-0.08-0.02-0.16-0.03-0.24-0.03c-0.05-0.01-0.11-0.02-0.16-0.02c-0.05,0-0.11,0-0.16,0c-0.04,0-0.08,0-0.12,0
			s-0.09,0.01-0.14,0.02c-0.05,0-0.11,0-0.17,0.01c-0.06,0.01-0.11,0.02-0.15,0.03c-0.48,0.18-0.8,0.49-0.97,0.94
			s-0.25,0.92-0.28,1.41c-0.01,0.16-0.02,0.32-0.02,0.48c0,0.16,0,0.31,0,0.46v4.14h-3.06V61.94z"/>
		<path d="M143.55,64.36h-1.31v-2.42h1.31v-2.96h3.06v2.96h1.35v2.42h-1.35v7.41h-3.06V64.36z"/>
		<path d="M149.75,61.94h2.94v2.28c0.16-0.43,0.37-0.83,0.62-1.19c0.25-0.36,0.57-0.66,0.95-0.92c0.23-0.16,0.47-0.27,0.72-0.32
			c0.25-0.05,0.51-0.08,0.77-0.08c0.07,0,0.14,0,0.21,0.01c0.07,0.01,0.15,0.01,0.23,0.01s0.16,0,0.23,0.01
			c0.07,0.01,0.14,0.01,0.21,0.01l-0.32,3.16c-0.03-0.01-0.06-0.03-0.1-0.03c-0.04-0.01-0.07-0.01-0.1-0.01
			c-0.17-0.04-0.34-0.08-0.5-0.1s-0.31-0.03-0.44-0.03c-0.68,0-1.24,0.24-1.67,0.73s-0.64,1.22-0.64,2.21v4.1h-3.1V61.94z"/>
		<path d="M160.97,67.52c0.04,0.67,0.21,1.23,0.5,1.67c0.29,0.44,0.77,0.68,1.43,0.71c0.01,0,0.02,0,0.03,0s0.02,0,0.03,0
			c0,0.02,0,0.02,0.01,0.02s0.02,0,0.03,0c0.4,0,0.77-0.1,1.1-0.29c0.33-0.19,0.6-0.49,0.82-0.9l2.36,1.05
			c-0.35,0.81-0.9,1.4-1.64,1.78c-0.75,0.38-1.53,0.58-2.37,0.59c-0.01,0-0.03,0-0.05,0c-0.02,0-0.04,0-0.05,0
			c-0.03,0-0.05,0-0.07,0s-0.04,0-0.07,0c-0.75-0.02-1.48-0.18-2.19-0.49s-1.28-0.76-1.71-1.34c-0.32-0.42-0.58-0.89-0.77-1.42
			s-0.31-1.07-0.33-1.62c0-0.04,0-0.09,0-0.12s0-0.08,0-0.12s0-0.1,0.01-0.16c0.01-0.06,0.02-0.12,0.03-0.18c0-0.04,0-0.1,0.01-0.16
			c0.01-0.06,0.01-0.11,0.01-0.16c0.15-1.48,0.7-2.64,1.65-3.49c0.95-0.85,2.03-1.28,3.24-1.28c0.25,0,0.51,0.02,0.75,0.06
			c0.25,0.04,0.5,0.09,0.75,0.17c1.26,0.4,2.11,1.13,2.54,2.18c0.43,1.05,0.66,2.22,0.68,3.5H160.97z M161.64,64.23
			c-0.28,0.34-0.47,0.79-0.57,1.34h3.56c-0.07-0.52-0.25-0.96-0.55-1.31c-0.3-0.35-0.71-0.53-1.22-0.55
			C162.32,63.71,161.91,63.88,161.64,64.23z"/>
	</g>
	<g>
		<g>
			<path d="M43.58,83.83v-4.09h2.04v0.6h-1.32v1.03h1.21v0.6h-1.21v1.26h1.32v0.6H43.58z"/>
			<path d="M48.97,83.83h-0.73v-4.09h1.16l0.39,1.9c0.06,0.31,0.1,0.63,0.13,0.94h0.01c0.04-0.4,0.06-0.68,0.11-0.94l0.39-1.9h1.15
				v4.09h-0.73v-1.29c0-0.81,0.02-1.62,0.06-2.44h-0.01l-0.78,3.72h-0.44l-0.76-3.72H48.9c0.05,0.81,0.06,1.62,0.06,2.44V83.83z"/>
			<path d="M54.33,83.83v-4.09h1.48c0.7,0,0.91,0.59,0.91,1.16c0,0.35-0.09,0.74-0.36,0.97c-0.23,0.19-0.53,0.25-0.81,0.25h-0.49
				v1.71H54.33z M55.06,81.52h0.39c0.32,0,0.53-0.14,0.53-0.64c0-0.47-0.18-0.54-0.59-0.54h-0.33V81.52z"/>
			<path d="M59.23,81.46c0.03-1.04,0.11-1.81,1.27-1.81s1.24,0.77,1.27,1.81v0.58c0,1.09-0.08,1.88-1.27,1.88
				c-1.19,0-1.27-0.79-1.27-1.88V81.46z M59.98,82.42c0,0.34,0.03,0.89,0.52,0.89c0.52,0,0.52-0.56,0.52-0.95v-1.05
				c0-0.33,0.02-1.05-0.52-1.05c-0.57,0-0.52,0.71-0.52,1.03V82.42z"/>
			<path d="M66.99,81.86c0.07,0.41,0.11,0.93,0.16,1.45h0.01c0.01-0.1,0.02-0.2,0.03-0.29c0.03-0.35,0.06-0.7,0.11-1.05l0.29-2.23
				h0.75l-0.72,4.09h-0.87l-0.29-1.61c-0.08-0.43-0.1-0.87-0.16-1.3h-0.01c-0.05,0.44-0.08,0.87-0.16,1.3l-0.26,1.61H65l-0.74-4.09
				h0.75l0.33,2.23c0.05,0.35,0.08,0.7,0.11,1.05c0.01,0.1,0.02,0.2,0.02,0.29h0.01c0.06-0.52,0.09-1.05,0.17-1.45L66,79.74h0.6
				L66.99,81.86z"/>
			<path d="M70.84,83.83v-4.09h2.04v0.6h-1.32v1.03h1.21v0.6h-1.21v1.26h1.32v0.6H70.84z"/>
			<path d="M76.22,82.07v1.76H75.5v-4.09h1.38c0.63,0,1.1,0.23,1.1,0.98c0,0.45-0.11,0.92-0.6,0.99v0.01
				c0.43,0.06,0.56,0.35,0.56,0.74c0,0.17-0.02,1.17,0.16,1.29v0.08h-0.8c-0.09-0.26-0.07-0.76-0.08-1.04
				c-0.01-0.25,0-0.59-0.25-0.67c-0.2-0.06-0.41-0.05-0.62-0.05H76.22z M76.22,81.47h0.57c0.24-0.02,0.43-0.18,0.43-0.59
				c0-0.46-0.18-0.53-0.46-0.54h-0.54V81.47z"/>
			<path d="M80.73,83.83v-4.09h0.73v4.09H80.73z"/>
			<path d="M85.96,79.74h0.73v4.09h-0.76l-0.57-1.45c-0.19-0.49-0.35-0.98-0.52-1.62h-0.01c0.03,0.34,0.06,0.75,0.08,1.17
				c0.02,0.41,0.04,0.82,0.04,1.14v0.77h-0.73v-4.09h0.75l0.57,1.49c0.19,0.47,0.34,0.96,0.52,1.62h0.01
				c-0.03-0.37-0.05-0.77-0.07-1.16c-0.02-0.39-0.04-0.78-0.04-1.15V79.74z"/>
			<path d="M89.38,81.46c0.03-1.04,0.11-1.81,1.27-1.81c0.62,0.01,1.05,0.17,1.22,0.88c0.04,0.16,0.03,0.33,0.04,0.5h-0.73
				c-0.01-0.41-0.04-0.74-0.53-0.76c-0.57,0-0.52,0.71-0.52,1.03v1.13c0,0.34,0.03,0.89,0.52,0.89c0.42,0,0.55-0.46,0.53-1.08h-0.5
				v-0.6h1.21v2.2h-0.54v-0.47h-0.01c-0.15,0.42-0.42,0.54-0.68,0.57c-1.19,0-1.27-0.79-1.27-1.88V81.46z"/>
			<path d="M97.99,83.83v-4.09h2.04v0.6h-1.32v1.03h1.21v0.6h-1.21v1.26h1.32v0.6H97.99z"/>
			<path d="M104.4,79.74h0.73v4.09h-0.76l-0.57-1.45c-0.19-0.49-0.35-0.98-0.52-1.62h-0.01c0.03,0.34,0.06,0.75,0.08,1.17
				c0.02,0.41,0.04,0.82,0.04,1.14v0.77h-0.73v-4.09h0.75l0.57,1.49c0.19,0.47,0.34,0.96,0.52,1.62h0.01
				c-0.03-0.37-0.05-0.77-0.07-1.16c-0.02-0.39-0.04-0.78-0.04-1.15V79.74z"/>
			<path d="M107.61,79.74h2.42v0.6h-0.85v3.49h-0.73v-3.49h-0.85V79.74z"/>
			<path d="M113.24,82.07v1.76h-0.73v-4.09h1.37c0.63,0,1.11,0.23,1.11,0.98c0,0.45-0.11,0.92-0.6,0.99v0.01
				c0.43,0.06,0.56,0.35,0.56,0.74c0,0.17-0.02,1.17,0.16,1.29v0.08h-0.8c-0.09-0.26-0.07-0.76-0.08-1.04c0-0.25,0-0.59-0.25-0.67
				c-0.2-0.06-0.41-0.05-0.62-0.05H113.24z M113.24,81.47h0.57c0.24-0.02,0.42-0.18,0.42-0.59c0-0.46-0.18-0.53-0.46-0.54h-0.54
				V81.47z"/>
			<path d="M117.72,83.83v-4.09h2.04v0.6h-1.32v1.03h1.21v0.6h-1.21v1.26h1.32v0.6H117.72z"/>
			<path d="M122.39,83.83v-4.09h1.48c0.69,0,0.91,0.59,0.91,1.16c0,0.35-0.09,0.74-0.36,0.97c-0.23,0.19-0.53,0.25-0.81,0.25h-0.49
				v1.71H122.39z M123.12,81.52h0.39c0.32,0,0.53-0.14,0.53-0.64c0-0.47-0.18-0.54-0.59-0.54h-0.33V81.52z"/>
			<path d="M128.04,82.07v1.76h-0.73v-4.09h1.37c0.63,0,1.11,0.23,1.11,0.98c0,0.45-0.11,0.92-0.6,0.99v0.01
				c0.43,0.06,0.56,0.35,0.56,0.74c0,0.17-0.02,1.17,0.16,1.29v0.08h-0.8c-0.09-0.26-0.07-0.76-0.08-1.04c0-0.25,0-0.59-0.25-0.67
				c-0.2-0.06-0.41-0.05-0.62-0.05H128.04z M128.04,81.47h0.57c0.24-0.02,0.42-0.18,0.42-0.59c0-0.46-0.18-0.53-0.46-0.54h-0.54
				V81.47z"/>
			<path d="M132.53,83.83v-4.09h2.04v0.6h-1.32v1.03h1.21v0.6h-1.21v1.26h1.32v0.6H132.53z"/>
			<path d="M138.93,79.74h0.73v4.09h-0.76l-0.57-1.45c-0.19-0.49-0.35-0.98-0.52-1.62h-0.01c0.03,0.34,0.06,0.75,0.08,1.17
				c0.02,0.41,0.04,0.82,0.04,1.14v0.77h-0.73v-4.09h0.75l0.57,1.49c0.19,0.47,0.34,0.96,0.52,1.62h0.01
				c-0.03-0.37-0.05-0.77-0.07-1.16c-0.02-0.39-0.04-0.78-0.04-1.15V79.74z"/>
			<path d="M142.39,83.83v-4.09h2.04v0.6h-1.32v1.03h1.21v0.6h-1.21v1.26h1.32v0.6H142.39z"/>
			<path d="M148.8,79.74h0.73v2.85c0,0.9-0.28,1.33-1.23,1.33c-0.96,0-1.24-0.43-1.24-1.33v-2.85h0.73v2.78
				c0,0.39,0.03,0.78,0.52,0.78c0.47,0,0.5-0.39,0.5-0.78V79.74z"/>
			<path d="M153,82.07v1.76h-0.73v-4.09h1.37c0.63,0,1.11,0.23,1.11,0.98c0,0.45-0.11,0.92-0.6,0.99v0.01
				c0.43,0.06,0.56,0.35,0.56,0.74c0,0.17-0.02,1.17,0.16,1.29v0.08h-0.8c-0.09-0.26-0.07-0.76-0.08-1.04c0-0.25,0-0.59-0.25-0.67
				c-0.2-0.06-0.41-0.05-0.62-0.05H153z M153,81.47h0.57c0.24-0.02,0.42-0.18,0.42-0.59c0-0.46-0.18-0.53-0.46-0.54H153V81.47z"/>
			<path d="M158.99,80.99c0-0.37-0.03-0.72-0.43-0.72c-0.24,0-0.4,0.1-0.4,0.38c0,0.31,0.19,0.43,0.42,0.58
				c0.24,0.16,0.68,0.46,0.88,0.67c0.25,0.26,0.33,0.5,0.33,0.86c0,0.77-0.49,1.18-1.2,1.18c-0.87,0-1.18-0.51-1.18-1.24v-0.3h0.73
				v0.24c-0.02,0.4,0.1,0.69,0.46,0.69c0.31,0,0.45-0.17,0.45-0.48c0-0.24-0.1-0.4-0.29-0.54c-0.38-0.31-0.85-0.53-1.15-0.94
				c-0.12-0.19-0.19-0.41-0.19-0.63c0-0.7,0.37-1.08,1.14-1.08c1.16,0,1.12,0.94,1.13,1.34H158.99z"/>
		</g>
	</g>
</g>
<polyline class="st0" points="70.89,40.43 85.29,29.41 93.59,29.52 103.3,37.15 111.49,37.26 127.42,15.87 "/>
<circle class="st1" cx="71.04" cy="40.96" r="5.45"/>
<circle class="st1" cx="89.7" cy="26.23" r="5.45"/>
<circle class="st1" cx="107.63" cy="40.2" r="5.45"/>
<circle class="st1" cx="128.11" cy="15.21" r="9.38"/>
<line class="st0" x1="122.42" y1="22.61" x2="124.77" y2="19.51"/>
<circle class="st1" cx="128.11" cy="15.21" r="5.45"/>
</svg>
